<?xml version="1.0" encoding="utf-8"?>
<svg viewBox="9.055 4.653 14.575 23.722" xmlns="http://www.w3.org/2000/svg">
  <path d="M 1.881 27.408 C 0.64 27.636 0.616 25.833 1.731 25.775 C 1.397 25.001 1.652 24.052 2.146 23.336 C 2.854 22.139 3.919 20.95 3.699 19.452 C 3.622 18.672 2.657 17.275 4.154 17.475 C 4.558 16.698 4.323 15.554 4.627 14.661 C 4.892 12.969 5.482 11.163 4.854 9.486 C 4.458 8.593 3.453 8.005 3.561 6.913 C 3.447 5.849 3.485 4.776 3.609 3.715 C 4.092 3.755 4.63 3.613 5.07 3.832 C 5.067 4.862 6.046 4.634 5.929 3.758 C 6.186 3.656 6.612 3.744 6.935 3.715 C 8.368 3.715 9.802 3.715 11.236 3.715 C 11.072 4.312 11.516 5.052 12.078 4.349 C 11.924 3.414 13.211 3.753 12.903 4.557 C 12.921 5.622 13.051 6.724 12.752 7.761 C 12.265 8.175 12.257 8.99 11.647 9.479 C 11.157 10.394 11.373 11.501 11.427 12.495 C 11.635 13.967 11.978 15.421 12.064 16.909 C 12.002 17.719 13.669 17.481 12.95 18.477 C 12.165 19.146 12.625 20.275 12.936 21.074 C 13.549 22.454 14.843 23.694 14.648 25.313 C 14.493 26.02 15.774 25.781 15.441 26.692 C 15.431 27.814 13.763 27.093 13.024 27.329 C 9.31 27.374 5.595 27.443 1.881 27.408 Z" id="imagebot_9" stroke-opacity="null" stroke-linecap="round" stroke-linejoin="round" stroke-dasharray="null" stroke="#000000" style="fill: rgb(255, 255, 255);" transform="matrix(1, 0, 0, 1, 8.134042, 0.946507)"/>
</svg>