<?xml version="1.0" encoding="utf-8"?>
<svg viewBox="-44 -67.2802 1606 2594.3289" xmlns="http://www.w3.org/2000/svg">
  <g transform="matrix(1, 0, 0, 1, 0.000001, -0.000001)">
    <path d="M 1473.18 2309.75 C 1471.6 2300.61 1468.51 2291.54 1462.93 2284.05 C 1453.65 2271.03 1438.27 2263.2 1422.58 2261.42 C 1408.4 2260.83 1394.2 2261.31 1380.01 2261.109 C 1370.3 2239.32 1354.88 2220.629 1338.05 2203.95 C 1304.73 2171.48 1264.9 2146.58 1223.9 2125 C 1218.58 2121.57 1216.05 2115.379 1213.03 2110.08 C 1204.24 2092.399 1198.58 2073.129 1196.45 2053.5 C 1192.81 2024.549 1199.4 1993.669 1217.66 1970.5 C 1233.7 1970.429 1249.74 1970.439 1265.78 1970.52 C 1265.871 1970.517 1265.962 1970.516 1266.052 1970.514 L 1274.28 1968.09 C 1288.96 1966.79 1303.89 1961.04 1313.51 1949.48 C 1320.92 1940.5 1324.76 1929.01 1325.63 1917.51 C 1326.42 1910.52 1326.1 1903.48 1326.16 1896.47 C 1326.14 1881.12 1326.18 1865.76 1326.15 1850.409 C 1325.8 1836.809 1322.91 1822.61 1314.3 1811.709 C 1303.99 1798.52 1286.86 1792.129 1270.46 1792.02 C 1272.97 1791.78 1275.48 1791.539 1278.01 1791.319 C 1278.71 1746.039 1286.66 1701.179 1297.53 1657.309 C 1308.58 1613.229 1322.38 1569.9 1336.97 1526.88 C 1350.06 1487.409 1363.61 1448.09 1376.69 1408.61 C 1405.55 1320.78 1430.77 1231.34 1443.79 1139.64 C 1448.23 1108.98 1451.36 1078.11 1452.91 1047.179 C 1453.92 1039.289 1453.25 1031.339 1453.83 1023.43 C 1454.56 1011.12 1454.59 998.79 1454.49 986.47 C 1454.41 976.12 1453.42 965.81 1453.53 955.46 C 1451.53 912.37 1446.86 869.36 1439.08 826.899 C 1423.95 742.85 1397.46 661.08 1363.01 583.01 C 1355.37 565.699 1347.56 548.419 1337.89 532.12 C 1304.06 473.71 1262.49 419.889 1215.82 371.189 C 1158.67 311.689 1093.01 260.159 1020.71 220.28 C 936.59 173.629 843.62 143.23 748.3 130.52 C 759.17 137.169 770.6 142.899 781.59 149.36 C 848.47 187.139 913.96 227.58 975.79 273.23 C 1042.78 322.53 1105.89 377.659 1160.09 440.919 C 1186.52 471.709 1210.82 504.379 1231.9 539.069 C 1241.17 554 1249.57 569.449 1257.99 584.869 C 1278.37 622.8 1297.64 661.419 1313.3 701.569 C 1328.02 738.949 1338.84 777.849 1345.42 817.489 C 1349.54 841.679 1352.48 866.06 1355.5 890.409 C 1356.09 896.579 1357.45 902.669 1357.55 908.879 C 1351.99 889.199 1347.11 869.29 1341.14 849.709 C 1316.84 768.119 1282.34 689.719 1240.14 615.839 C 1221.49 583.089 1201.9 550.8 1179.7 520.319 C 1131.13 452.619 1072.16 392.199 1004.55 343.399 C 953.39 306.63 897.53 276.08 838.14 254.84 C 818.33 247.64 798.02 241.95 777.46 237.34 C 793.99 232.3 810.62 227.63 827.09 222.39 C 815 210.53 801.51 200.2 788.08 189.92 C 755.94 165.77 722.77 143.05 689.44 120.59 C 656.29 98.29 622.86 76.4 589.33 54.68 C 582.26 49.8 574.63 45.88 567.05 41.88 C 554.66 35.66 542.16 29.62 530.05 22.88 C 527.97 30.01 528.84 37.53 527.82 44.82 C 525.6 99.47 528.71 155.15 545.49 207.56 C 550.63 223.44 556.91 239.06 565.57 253.37 C 599.7 239.05 637.11 234.86 673.8 233.72 C 600.49 260.95 529.92 296.41 466.51 342.39 C 449.81 354.53 433.57 367.39 418.53 381.55 C 416.91 383.48 414.3 382.11 412.25 381.92 C 392.58 377.62 371.87 381.97 354.23 391.19 C 348.38 394.42 341.64 397.02 337.78 402.8 C 332.13 411.33 329.48 421.38 327.16 431.23 C 320.38 461.01 318.54 491.62 312.8 521.58 C 311.38 527.21 310.71 533.35 307.26 538.2 C 233.61 629.17 161.57 721.8 98.91 820.8 C 88.22 837.44 77.73 854.22 66.59 870.57 C 57.04 883.84 48.45 898.16 44.12 914.05 C 40.02 928.49 39.82 944.16 44.53 958.48 C 53.84 987.82 68.65 1015.69 89.36 1038.59 C 102.48 1053.07 117.87 1065.47 134.81 1075.2 C 140.73 1078.75 147.2 1081.27 153.12 1084.83 C 165.42 1089.48 178.51 1091.61 191.47 1093.51 C 204.94 1095.33 218.53 1096.11 232.12 1096.13 C 245.05 1076.76 260.03 1058.85 275.63 1041.6 C 303.95 1010.59 334.5 981.67 366.31 954.27 C 369.26 951.12 373.84 953.01 377.59 952.86 C 441.15 955.85 505.59 953.64 567.66 938.6 C 616.42 926.78 663.81 905.96 702.06 873.01 C 719.73 858.16 734.83 840.54 748.49 822.01 C 748.11 826.58 748.12 831.46 745.63 835.51 C 743.82 839.44 740.51 842.93 740.47 847.47 C 736.5 890.21 723.93 931.74 707.14 971.11 C 690.51 1010.04 669.68 1047.08 646.61 1082.53 C 605.24 1146.09 556.75 1204.71 505.36 1260.37 C 481.22 1286.83 455.5 1311.79 430.76 1337.68 C 377.48 1394.17 331.18 1457.54 295.89 1526.81 C 255.38 1606.39 228.85 1693.94 224.54 1783.41 C 224.49 1786.07 224.51 1788.75 224.52 1791.45 C 214.98 1791.44 205.35 1791.08 195.95 1793.08 C 180.15 1795.99 164.56 1803.6 154.82 1816.73 C 149.35 1823.96 146.3 1832.71 144.67 1841.549 C 143.34 1855.48 144.17 1869.49 143.94 1883.469 C 144.22 1897.069 143 1910.839 145.68 1924.269 C 148.19 1936.659 155.44 1947.919 165.51 1955.529 C 176.17 1963.64 189.33 1967.94 202.53 1969.47 C 214.99 1971.25 227.65 1969.68 240.12 1970.74 C 252.57 1984.25 260.34 2001.79 263.24 2019.86 C 267.06 2044.5 263.02 2069.89 254.15 2093.06 C 250.74 2101.56 246.96 2110 241.66 2117.52 C 240.12 2119.6 238.42 2121.69 236.13 2123 C 201.12 2140.67 167.06 2160.71 136.71 2185.68 C 111.85 2206.42 88.52 2230.81 76.31 2261.32 C 58.66 2261.91 40.76 2266.15 25.68 2275.6 C 15.1 2282.12 6.22 2291.53 0.77 2302.74 C -3.02 2310.03 -4.52 2318.17 -6.47 2326.08 L -6.47 2461.47 C 487.19 2461.56 980.86 2461.49 1474.52 2461.5 C 1474.54 2422.49 1474.52 2383.48 1474.52 2344.47 C 1474.38 2332.89 1475.16 2321.22 1473.18 2309.75 Z M 1357.72 910.08 C 1359.14 909.76 1359.34 912.21 1358.32 912.8 C 1356.87 913.09 1356.66 910.64 1357.72 910.08 Z M 1266.53 1921.49 C 1165.86 1921.49 1065.2 1921.49 964.53 1921.49 C 952.71 1921.28 940.85 1921.92 929.06 1921.16 C 930.45 1920.5 931.95 1920.08 933.5 1920.15 C 1049.18 1920.16 1164.85 1920.16 1280.53 1920.15 C 1284.36 1920.25 1288.38 1919.54 1292.04 1921.06 C 1283.57 1921.98 1275.03 1921.27 1266.53 1921.49 Z M 502.17 613.19 C 510.74 611.57 519.91 612.47 527.81 616.26 C 536.58 620.46 542.85 629.71 542.88 639.51 C 543.88 651.7 536.71 663.05 527.37 670.27 C 508.9 684.49 484.37 688.89 461.58 686.52 C 440.5 684.38 418.91 684.96 398.36 690.48 C 403.49 683.33 409.68 677.03 415.49 670.44 C 427.63 657.18 440.94 644.95 455.53 634.41 C 469.53 624.53 485.04 615.93 502.17 613.19 Z M 389.15 468.08 C 390.51 465.29 392.47 462.59 395.39 461.31 C 400.4 458.91 406.08 460.13 411.34 460.74 C 429.34 464.03 446.24 471.41 462.75 479.07 C 460.1 480.78 457.21 482.05 454.28 483.19 C 442.27 488.18 430.08 493.22 417.11 494.97 C 411.59 495.65 406.06 496.81 400.47 496.49 C 393.85 496.12 387.98 490.86 386.58 484.44 C 385.82 478.89 386.73 473.13 389.15 468.08 Z M 709.12 813.07 C 688.73 834.24 663.94 850.84 637.39 863.28 C 617.1 872.74 595.82 879.91 574.4 886.34 C 541.54 895.98 507.66 902.31 473.47 904.52 C 450.2 906.28 426.85 905.65 403.54 906.16 C 383.3 906.47 362.32 907.74 343.75 916.58 C 331.92 922.05 322.12 930.82 312.62 939.57 C 289.64 961.6 269.18 986.1 245.99 1007.92 C 228.94 1023.94 208.42 1037.35 185.12 1041.79 C 174.82 1043.82 164.11 1043.4 153.91 1041.06 C 149.16 1039.85 144.31 1038.38 140.37 1035.37 C 145.37 1036.83 150.14 1039.41 155.46 1039.47 C 170.12 1040.42 183.82 1033.42 195.72 1025.59 C 218.38 1010.08 237.73 990.35 256.59 970.54 C 276.71 949.67 295.89 927.85 317.49 908.48 C 322.02 904.64 326.48 900.69 331.34 897.26 C 341.11 890.28 352.4 885.58 364.11 883.05 C 386.28 878.38 409.03 879.59 431.53 879.45 C 442.22 879.66 452.86 878.36 463.54 878.47 C 491.02 876.94 518.49 873.59 545.31 867.22 C 573.53 860.77 601.22 851.93 627.97 840.88 C 655.16 829.32 680.83 813.62 702.3 793.23 C 721.38 775.36 737.24 754.04 748.62 730.5 C 762.48 702.65 769.97 671.99 773.19 641.17 C 773.93 649.55 773.72 658.04 772.68 666.39 C 768.77 720.47 747.45 774.15 709.12 813.07 Z M 381.12 1498.13 C 415.55 1431.82 460.45 1371.03 513.28 1318.21 C 527.19 1304.1 542.06 1290.99 556.77 1277.73 C 612.33 1227.39 666.35 1175.28 717.55 1120.5 C 744.61 1091.44 770.75 1061.51 795.41 1030.38 C 820.16 998.879 843.67 966.28 863.58 931.47 C 881.31 900.46 896.56 867.48 903.4 832.22 C 900.4 876.33 890.75 920.25 872.81 960.78 C 857.52 995.62 837.12 1027.99 814.59 1058.58 C 791.95 1089.25 767.15 1118.28 741.47 1146.43 C 717.2 1172.79 692.27 1198.55 666.71 1223.67 C 654.19 1236.5 640.93 1248.56 628.2 1261.18 C 611.73 1276.71 595.39 1292.38 578.69 1307.66 C 520.78 1360.72 471.37 1423.44 435.64 1493.51 C 416.85 1530.16 401.71 1568.67 390.32 1608.26 C 377.65 1651.76 369.88 1696.53 364.47 1741.47 C 364.27 1743.15 363.98 1744.84 363.69 1746.55 C 343.41 1746.68 323.13 1746.8 302.85 1746.48 C 314.62 1660.07 340.73 1575.49 381.12 1498.13 Z M 245.5 1855.52 C 236.77 1855.44 226.38 1848.96 227.73 1839.11 C 226.21 1839.01 224.7 1838.83 223.2 1838.71 C 225.19 1824.22 234.14 1811.17 246.28 1803.21 C 255.63 1796.9 266.62 1793.43 277.7 1791.8 C 285.95 1791.02 294.24 1790.65 302.53 1790.81 C 355.58 1790.78 408.63 1790.86 461.68 1790.78 C 454.81 1792.46 447.73 1793.41 441.12 1796.06 C 426.42 1801.52 412.91 1812.38 407.46 1827.46 C 576.15 1827.46 744.84 1827.44 913.53 1827.47 C 917.72 1827.47 922 1827.8 926.1 1826.69 C 923.06 1821.03 919.78 1815.38 915.07 1810.93 C 902.8 1798.77 885.45 1792.89 868.46 1791.9 C 879.79 1791.03 891.17 1791.63 902.53 1791.46 C 1002.861 1791.46 1103.2 1791.46 1203.53 1791.46 C 1215.41 1791.6 1227.4 1790.83 1239.17 1792.86 C 1254.47 1795.48 1269.75 1801.96 1280.08 1813.91 C 1286.24 1821.33 1290.76 1830.38 1291.83 1840.05 C 1291.51 1839.85 1290.88 1839.46 1290.56 1839.26 L 1289.54 1839.84 C 1290.47 1845.97 1285.79 1851.08 1280.57 1853.48 C 1275.02 1856.42 1268.56 1855.41 1262.54 1855.55 C 1158.54 1855.53 1054.53 1855.54 950.53 1855.54 C 944.21 1855.51 937.9 1855.64 931.591 1855.43 C 756.02 1855.59 580.44 1855.38 404.871 1855.54 C 351.75 1855.52 298.62 1855.56 245.5 1855.52 Z M 304.37 1994.59 C 301.09 1985.63 297.07 1976.96 292.46 1968.61 C 312.68 1968.51 332.91 1968.38 353.14 1968.7 C 363.46 1987.87 371.28 2008.67 373.54 2030.45 C 377.64 2062.39 369.56 2094.82 355.31 2123.36 C 335.12 2123.59 314.93 2123.47 294.74 2123.43 C 303.88 2104.98 310.52 2085.16 312.9 2064.65 C 315.46 2041.05 312.78 2016.84 304.37 1994.59 Z M 1422.66 2321.69 C 1417.87 2328.24 1409.26 2330.44 1401.54 2330.58 C 1284.54 2330.57 1167.53 2330.58 1050.53 2330.58 C 1025.3 2330.47 1000.06 2330.78 974.83 2330.43 C 836.07 2330.57 697.3 2330.44 558.53 2330.49 C 502.5 2330.42 446.46 2330.61 390.43 2330.4 C 348.8 2330.78 307.16 2330.45 265.52 2330.56 C 215.52 2330.55 165.51 2330.59 115.51 2330.54 C 107.17 2330.62 98.67 2327.25 93.43 2320.63 L 92.21 2320.56 C 92.34 2317.15 92.5 2313.55 94.55 2310.69 C 97.78 2298.09 106.24 2287.26 116.27 2279.23 C 130.28 2268.23 147.91 2262.61 165.5 2261.03 C 173.8 2259.95 182.19 2260.67 190.54 2260.49 C 275.2 2260.48 359.87 2260.49 444.53 2260.48 C 450.57 2260.5 456.63 2260.2 462.65 2260.92 C 445.77 2262.56 428.85 2267.78 415.21 2278.11 C 406.61 2284.3 399.66 2292.77 395.32 2302.44 L 396.26 2302.44 C 586.42 2302.47 776.58 2302.48 966.74 2302.43 L 967.63 2302.44 C 960.7 2288.31 948.33 2277.4 934.16 2270.86 C 923.82 2265.92 912.54 2263.33 901.22 2261.94 C 906.94 2260.98 912.76 2261.61 918.53 2261.45 C 1053.53 2261.45 1188.53 2261.45 1323.53 2261.45 C 1335.9 2261.59 1348.39 2260.75 1360.63 2263.12 C 1383.85 2266.86 1407.16 2279.08 1418.64 2300.4 C 1420.01 2303.64 1423.04 2307 1421.76 2310.73 C 1423.88 2313.85 1425.14 2317.53 1425.55 2321.3 C 1424.83 2321.4 1423.38 2321.6 1422.66 2321.69 Z" style="fill: rgb(255, 255, 255); paint-order: fill; stroke: rgb(0, 0, 0); stroke-width: 15px;"/>
    <path stroke="#000000" stroke-width="0.0938" d="M522.19,168.81c6.83,28.05,16.56,55.92,33.1,79.82 c-26.16,12.56-51.76,26.26-77.37,39.9c-22.09-37.79-44.09-75.64-66.08-113.49c11.86-9.47,25.35-16.66,39.01-23.17 c20.34-9.53,41.76-16.64,63.54-22.07C514.35,127.87,518.87,154.03,522.19,168.81z" style="fill: rgb(255, 255, 255);"/>
    <path stroke="#7B8F8E" stroke-width="0.0938" d="M401.86,454.84c5.01-2.4,10.69-1.18,15.95-0.57 c18,3.29,34.9,10.67,51.41,18.33c-2.65,1.71-5.54,2.98-8.47,4.12c-12.01,4.99-24.2,10.03-37.17,11.78 c-5.52,0.68-11.05,1.84-16.64,1.52c-6.62-0.37-12.49-5.63-13.89-12.05c-0.76-5.55,0.15-11.31,2.57-16.36 C396.98,458.82,398.94,456.12,401.86,454.84z" style=""/>
    <path stroke="#7B8F8E" stroke-width="0.0938" d="M508.64,606.72c8.57-1.62,17.74-0.72,25.64,3.07 c8.77,4.2,15.04,13.45,15.0699,23.25c1,12.19-6.17,23.54-15.5099,30.76c-18.47,14.22-43,18.62-65.79,16.25 c-21.08-2.14-42.67-1.56-63.22,3.96c5.13-7.15,11.32-13.45,17.13-20.04c12.14-13.2599,25.45-25.49,40.04-36.03 C476,618.06,491.51,609.46,508.64,606.72z" style=""/>
    <path stroke="#7B8F8E" stroke-width="0.0938" d="M755.09,724.03c13.86-27.85,21.35-58.51,24.5699-89.33 c0.7401,8.38,0.53,16.87-0.5099,25.22c-3.91,54.08-25.23,107.76-63.56,146.68c-20.39,21.17-45.1801,37.77-71.73,50.21 c-20.29,9.46-41.57,16.63-62.99,23.06c-32.86,9.64-66.74,15.97-100.93,18.18c-23.27,1.76-46.62,1.13-69.93,1.64 c-20.24,0.31-41.22,1.58-59.79,10.42c-11.83,5.47-21.63,14.24-31.13,22.99c-22.98,22.03-43.44,46.53-66.63,68.35 c-17.05,16.02-37.57,29.43-60.87,33.8699c-10.3,2.03-21.01,1.6101-31.21-0.73c-4.75-1.21-9.6-2.6799-13.54-5.6899 c5,1.46,9.77,4.0399,15.09,4.1c14.66,0.95,28.36-6.05,40.26-13.88c22.66-15.51,42.01-35.24,60.87-55.05 c20.12-20.87,39.3-42.69,60.9-62.06c4.53-3.84,8.99-7.79,13.85-11.22c9.77-6.98,21.06-11.68,32.77-14.21 c22.17-4.67,44.92-3.46,67.42-3.6c10.69,0.21,21.33-1.09,32.01-0.98c27.48-1.53,54.95-4.88,81.77-11.25 c28.22-6.45,55.91-15.29,82.66-26.34c27.19-11.56,52.86-27.2599,74.33-47.65C727.85,768.89,743.71,747.57,755.09,724.03z" style=""/>
    <path stroke="#7B8F8E" stroke-width="0.0938" d="M870.05,925c17.73-31.01,32.98-63.99,39.82-99.25 c-3,44.11-12.65,88.03-30.59,128.56c-15.29,34.84-35.69,67.21-58.22,97.8c-22.64,30.67-47.44,59.7001-73.12,87.85 c-24.27,26.36-49.2,52.12-74.76,77.24c-12.52,12.8301-25.78,24.89-38.51,37.51c-16.47,15.53-32.81,31.2001-49.51,46.48 c-57.91,53.0601-107.32,115.78-143.05,185.8501c-18.79,36.6499-33.93,75.1599-45.32,114.75c-12.67,43.5-20.44,88.27-25.85,133.21 c-0.2,1.6801-0.49,3.37-0.78,5.08c-20.28,0.13-40.56,0.25-60.84-0.0699c11.77-86.41,37.88-170.99,78.27-248.35 c34.43-66.3101,79.33-127.1,132.16-179.92c13.91-14.11,28.78-27.22,43.49-40.48c55.56-50.34,109.58-102.45,160.78-157.23 c27.06-29.0601,53.2-58.99,77.86-90.1201C826.63,992.41,850.14,959.81,870.05,925z" style=""/>
    <path fill="#555656" stroke="#555656" stroke-width="0.0938" d="M1364.1899,903.61c1.42-0.32,1.6201,2.13,0.6001,2.72 C1363.34,906.62,1363.13,904.17,1364.1899,903.61z"/>
    <path stroke="#C0CCCC" stroke-width="0.0938" d="M572.04,246.9C563.38,232.5901,557.1,216.97,551.96,201.0901 C535.1799,148.6799,532.0701,93,534.29,38.35c1.02-7.2899,0.1499-14.8099,2.23-21.9401C529,11.61,520.97,7.6699,512.96,3.79 c-1.33,6.51-1.27,13.1899-1.6799,19.79c-0.28,3.5898-0.22,7.1899-0.0701,10.7799c-0.52,3.76-1.0599,7.52-1.0699,11.3199 c-0.3099,8.8801-0.2201,17.77-0.04,26.6502c-0.21,5.8999,0.77,11.76,0.79,17.6599c0.0399,4,0.16,7.99,0.5699,11.96 c-5.21,1.8101-10.58,3.1001-15.86,4.66c-42.27,12.66-82.8199,31.35-119.48,55.9401c2.63,6.21,6.48,11.77,9.78,17.6199 c22.23,38.3801,44.7,76.6201,66.92,115c0.86,1.5801,1.66,3.1901,2.47,4.79c-5.88,4.0801-12.4,7.0601-18.5099,10.75 c-34.89,20.21-69.42,41.22-101.8,65.3101c-5.8,4.3999-12.46,8.3201-16.07,14.8999c-4.95,8.8501-7.17,18.8601-9.49,28.6301 c-6.16,28.5599-8.19,57.8099-13.51,86.51c-1.4,6.0999-2.2599,12.6499-5.98,17.8699c-6.77,9.1602-14.44,17.5901-21.46,26.54 C233.58,594.4,198.75,638.4,165.72,683.75c-22.6899,31.1599-45.0099,62.61-66.06,94.9c-15.48,23.59-30.42,47.5399-45.86,71.16 c-13.84,19.33-27.78,40.4399-29.47,64.8499c-0.49,4.8401-0.49,9.7201,0.02,14.5601c0.45,7.8701,2.97,15.41,5.53,22.8101 c10.22,28.52,25.43,55.61,46.77,77.3199c20.2,21.26,45.83,37.09,73.43,46.8199c3.06,1.14,6.28,1.7201,9.51,2.1901 c-5.92-3.5601-12.39-6.08-18.31-9.63c-16.94-9.73-32.33-22.13-45.45-36.61c-20.71-22.9-35.52-50.77-44.83-80.11 c-4.71-14.3201-4.51-29.99-0.41-44.4299C54.92,891.6899,63.51,877.37,73.06,864.1c11.14-16.35,21.63-33.13,32.32-49.7699 c62.66-99,134.7-191.6301,208.35-282.6001c3.45-4.85,4.12-10.99,5.54-16.62c5.74-29.96,7.58-60.5699,14.36-90.35 c2.32-9.8501,4.97-19.9,10.62-28.4299c3.86-5.78,10.6-8.3801,16.45-11.6101c17.64-9.22,38.35-13.5699,58.02-9.27 c2.05,0.1901,4.66,1.5601,6.28-0.3699c15.04-14.1602,31.28-27.02,47.98-39.1602c63.41-45.98,133.98-81.4399,207.29-108.6699 C643.5801,228.39,606.1699,232.5801,572.04,246.9z M477.92,288.53c-22.09-37.79-44.09-75.64-66.08-113.49 c11.86-9.47,25.35-16.66,39.0099-23.17c20.34-9.5299,41.76-16.64,63.54-22.0699c-0.04-1.9301,4.48,24.23,7.7999,39.01 C529.02,196.86,538.75,224.73,555.29,248.63C529.13,261.1899,503.53,274.89,477.92,288.53z" style=""/>
    <path stroke-width="0.0938" d="M284.17,1785.33c8.25-0.7799,16.54-1.1499,24.83-0.99 c53.05-0.0299,106.1,0.05,159.15-0.0299c-6.87,1.6799-13.95,2.6299-20.56,5.2799c-14.7,5.4601-28.21,16.3201-33.66,31.4 c-50.64-0.04-101.29,0.02-151.93-0.03c-7.03,0.03-14.69-0.7999-20.94,3.13c-3.2,1.64-5.24,4.6801-6.64,7.9 c10.51,0.79,21.05,0.17,31.58,0.36c31.67,0,63.33-0.01,95,0c16.91-0.15,33.83,0.3101,50.74-0.26 c58.44-0.1599,116.9,0.04,175.34-0.11c1.92,0.0601,3.7,0.88,5.5,1.49c-11.17,0.9401-22.39,0.25-33.58,0.4601c-43,0-86,0-129,0 c-5.68-0.04-11.39,0.2899-17.04-0.4301c-9.58-1.52-19.31-0.49-28.96-0.77c-49.93-0.0599-99.87,0.11-149.8-0.09 c-1.52-0.1-3.03-0.28-4.53-0.4c1.99-14.49,10.94-27.54,23.08-35.5C262.1,1790.4301,273.09,1786.96,284.17,1785.33z" style="stroke: rgb(0, 0, 0);"/>
    <path stroke="#7B8F8E" stroke-width="0.0938" d="M874.93,1785.4301c11.33-0.87,22.71-0.27,34.07-0.4401 c100.33,0,200.67,0,301,0c11.88,0.14,23.87-0.63,35.64,1.4c15.2999,2.62,30.58,9.1,40.91,21.0499 c6.1599,7.42,10.6799,16.4701,11.75,26.14c-0.3201-0.2-0.9501-0.59-1.27-0.7899c-2.49-3.0901-4.38-6.88-7.97-8.8501 c-6.3101-3.9099-14.02-2.8899-21.0601-2.97c-101.67,0.03-203.33,0-305,0.01c-9.98,0.0701-19.95-0.1899-29.92,0.2001 c-0.13-0.2401-0.38-0.7201-0.51-0.9601c-3.04-5.6599-6.32-11.3099-11.03-15.76C909.27,1792.3,891.92,1786.42,874.93,1785.4301z" style=""/>
    <path stroke="#5C7071" stroke-width="0.0938" d="M932.57,1820.22c0.13,0.24,0.38,0.72,0.51,0.9601 c2.06,3.9099,3.14,8.22,4.26,12.48c-105.11-0.0601-210.23-0.01-315.34-0.03c-9.8-0.11-19.62,0.21-29.42-0.16 c-1.8-0.61-3.58-1.4299-5.5-1.49c-58.44,0.15-116.9-0.0499-175.34,0.11c0.53-3.75,1.37-7.4299,2.19-11.1 c168.69,0,337.38-0.02,506.07,0.01C924.19,1821,928.47,1821.33,932.57,1820.22z" style=""/>
    <path stroke="#A9BDBC" stroke-width="0.0938" d="M241.06,1824.09c6.25-3.9299,13.91-3.1,20.94-3.13 c50.64,0.05,101.29-0.01,151.93,0.03c-0.82,3.67-1.66,7.35-2.19,11.1c-16.91,0.5701-33.83,0.11-50.74,0.26 c-31.67-0.01-63.33,0-95,0c-10.53-0.1899-21.07,0.4301-31.58-0.36C235.82,1828.77,237.86,1825.73,241.06,1824.09z" style=""/>
    <path stroke-width="0.0938" d="M933.08,1821.1801c9.97-0.39,19.94-0.13,29.92-0.2001 c101.67-0.01,203.33,0.02,305-0.01c7.04,0.0801,14.75-0.9399,21.0601,2.97c3.59,1.9701,5.48,5.76,7.97,8.8501l-1.02,0.58 c-16.99,0.52-34.01,0.05-51.01,0.21c-102.55,0.05-205.11-0.1-307.66,0.0801C936.22,1829.4,935.14,1825.09,933.08,1821.1801z" style="stroke: rgb(0, 0, 0);"/>
    <path stroke-width="0.0938" d="M234.2,1832.64c49.93,0.2,99.87,0.03,149.8,0.09 c9.65,0.28,19.38-0.75,28.96,0.77c-0.85,5.14-1.18,10.36-1.62,15.5699c-53.12-0.0199-106.25,0.02-159.37-0.0199 C243.24,1848.97,232.85,1842.49,234.2,1832.64z" style="stroke: rgb(0, 0, 0);"/>
    <path stroke="#253A3D" stroke-width="0.0938" d="M412.96,1833.5c5.65,0.72,11.36,0.39,17.04,0.4301c43,0,86,0,129,0 c11.19-0.2101,22.41,0.48,33.58-0.4601c9.8,0.37,19.62,0.05,29.42,0.16c105.11,0.02,210.23-0.03,315.34,0.03 c0.62,5.0699,0.8199,10.1799,0.72,15.2999c-175.57,0.16-351.15-0.0499-526.72,0.11C411.78,1843.86,412.11,1838.64,412.96,1833.5z" style=""/>
    <path stroke-width="0.0938" d="M937.34,1833.66c102.55-0.1801,205.1099-0.03,307.66-0.0801 c17-0.1599,34.02,0.3101,51.01-0.21c0.9299,6.13-3.75,11.24-8.97,13.64c-5.55,2.9399-12.01,1.9299-18.03,2.0699 c-104-0.0199-208.01-0.01-312.01-0.01c-6.32-0.0299-12.63,0.1001-18.94-0.11C938.16,1843.84,937.96,1838.73,937.34,1833.66z" style="stroke: rgb(0, 0, 0);"/>
    <path stroke-width="0.0938" d="M1488.03,912.01c-3.49-89.6001-21.5901-178.63-53.5701-262.41 C1420.77,613.01,1404.21,577.55,1385.91,543.05c-34.92-65.3901-77.3401-126.9001-127.0801-181.91 c-46.14-51.2101-98.5699-96.84-156.13-134.84C1051.87,192.75,997.2,164.96,940.01,144c-77.02-28.47-158.22-45.14-240.05-51.21 c-5.22-0.3701-9.72-3.24-14.25-5.5701C642.27,64.22,598.4,42.04,554.95,19.0801C547.29,15.1,521.1001,6.79,512.96,3.79 c7.4196,7.1815,55.1486,27.9487,60.5601,31.6199c7.58,4,15.21,7.9202,22.28,12.8c33.53,21.72,66.96,43.6101,100.1099,65.91 c33.3301,22.4601,66.5,45.1801,98.6401,69.33c13.4299,10.28,26.9199,20.6101,39.01,32.47 c-16.47,5.24-33.1001,9.9102-49.6301,14.9501c20.5601,4.61,40.8701,10.2999,60.6801,17.5 c59.39,21.24,115.25,51.7899,166.41,88.5599c67.61,48.8,126.58,109.22,175.15,176.92c22.2,30.4801,41.7899,62.77,60.4399,95.52 c42.2001,73.88,76.7001,152.28,101,233.87c5.97,19.5801,10.85,39.49,16.41,59.1699c-0.1-6.21-1.46-12.2999-2.05-18.47 c-3.02-24.3499-5.96-48.73-10.08-72.9199c-6.58-39.64-17.4-78.54-32.12-115.92c-15.66-40.15-34.9301-78.7699-55.3101-116.7 c-8.4199-15.42-16.8199-30.87-26.09-45.8c-21.08-34.6901-45.38-67.36-71.8099-98.15 c-54.2001-63.26-117.3101-118.3899-184.3-167.6899c-61.8301-45.65-127.3201-86.0901-194.2-123.87 c-10.99-6.4601-22.42-12.1901-33.29-18.84c95.3201,12.71,188.29,43.1099,272.41,89.76 c72.2999,39.8799,137.96,91.4099,195.11,150.9099c46.6699,48.7,88.24,102.52,122.0699,160.9301 c9.67,16.2999,17.48,33.58,25.12,50.89c34.4501,78.0699,60.9401,159.84,76.0701,243.8899C1453.33,862.89,1458,905.9,1460,948.99 c-0.11,10.3501,0.88,20.66,0.96,31.01c0.1001,12.3201,0.0701,24.65-0.6599,36.96c-0.5801,7.91,0.09,15.8599-0.92,23.7499 c-1.55,30.9301-4.6801,61.8-9.12,92.4601c-13.02,91.7-38.24,181.14-67.1,268.97c-13.0801,39.48-26.63,78.7999-39.7201,118.27 c-14.59,43.02-28.3899,86.35-39.4399,130.4299c-10.87,43.87-18.8199,88.73-19.52,134.01c-2.53,0.22-5.04,0.4601-7.5499,0.7001 c16.3999,0.11,33.5299,6.5,43.84,19.6899c8.61,10.9,11.5,25.1,11.85,38.7c0.03,15.3501-0.01,30.7101,0.01,46.0601 c-0.0601,7.01,0.26,14.05-0.53,21.04c-0.87,11.5-4.71,22.99-12.12,31.97c-9.62,11.5599-24.5499,17.3099-39.23,18.61l-8.2278,2.4244 c16.3533-0.4176,33.056,0.9501,48.9878-3.6444c10.7424-3.098,20.8761-8.1543,28.9127-16.0565 c8.2736-8.1351,13.3448-19.208,15.4055-30.559c1.1512-6.3417,0.9875-12.9072,1.1235-19.3412 c0.1461-6.9149,0.2029-13.8318,0.1702-20.7482c-0.051-10.7896-0.3196-21.5781-0.8057-32.3569 c-0.2131-4.7257-0.1187-9.2892-1.688-13.7284c-1.6189-4.5797-2.9763-9.354-5.7511-13.4296 c-3.5507-5.9314-8.2484-11.1792-13.8271-15.2703c-7.6371-5.8422-16.6697-9.6045-25.9883-11.7993 c-6.3988-1.5071-12.9753-1.9756-19.5292-2.1746c-2.8793-0.0874-7.3845,0.736-10.0774-0.202 c-1.4441-0.5029-1.2211-0.7504-1.1124-2.4169c0.1135-1.7421,0.2806-3.4828,0.4354-5.2217 c1.1899-13.3739,2.946-26.6943,5.1467-39.9385c4.3153-25.9686,10.3337-51.6263,17.175-77.0371 c10.3101-37.77,22.3301-75.05,34.97-112.1c14.51-41.21,28.5701-82.5801,43.1801-123.75c27.42-79.0701,53.15-158.91,71.47-240.65 C1480.65,1094.65,1491.95,1003.28,1488.03,912.01z" style="stroke: rgb(0, 0, 0); fill: rgb(13, 13, 13);"/>
    <path fill="#6F797A" stroke="#6F797A" stroke-width="0.0938" d="M935.53,1914.6899c1.39-0.6599,2.89-1.08,4.4399-1.0099 c115.6801,0.0099,231.35,0.0099,347.03,0c3.83,0.1,7.85-0.6101,11.51,0.9099c-8.47,0.92-17.01,0.2101-25.51,0.4301 c-100.67,0-201.33,0-302,0C959.18,1914.8101,947.32,1915.45,935.53,1914.6899z"/>
    <path stroke="#7B8F8E" stroke-width="0.0938" d="M298.93,1962.14c20.22-0.1,40.45-0.23,60.68,0.09 c10.32,19.17,18.14,39.97,20.4,61.75c4.1,31.9399-3.98,64.3701-18.23,92.9099c-20.19,0.2302-40.38,0.1101-60.57,0.0701 c9.14-18.45,15.78-38.27,18.16-58.78c2.56-23.6-0.12-47.8099-8.53-70.0599C307.56,1979.16,303.54,1970.49,298.93,1962.14z" style=""/>
    <path stroke-width="0.0938" d="M1509.6,2286.3899c-7.8199-13.5898-21.5399-22.8899-36.2-27.76 c-8.86-2.8398-18.1-4.71-27.4301-4.8098c-3.97-0.0701-7.9399-0.22-11.88-0.6201c-2.01-4.5601-4.09-9.0898-6.77-13.28 c-2.0599-3.95-4.49-7.6799-7.0499-11.29c-6.4301-11.7-15.98-21.24-25.14-30.7898c-7.14-6.8701-14.13-13.9402-22.11-19.8401 c-29.8-24.53-63.36-43.99-97.63-61.5c-5.09-3.01-7.53-8.7-10.4-13.5701c-20.2953-34.4392-26.3226-84.8032-5.35-120.34 c3.5021-6.5964,8.3988-12.2729,12.5453-18.4463c0.0212-0.0315,0.0436-0.0621,0.0647-0.0936c-16.04-0.0801-32.08-0.0901-48.12-0.02 c-18.26,23.1699-24.85,54.0499-21.21,83c2.13,19.6299,7.7899,38.8999,16.58,56.5801c3.02,5.2998,5.55,11.49,10.87,14.9199 c41,21.5801,80.83,46.48,114.15,78.95c16.83,16.6799,32.25,35.3701,41.96,57.1599c14.1901,0.2002,28.39-0.2798,42.5701,0.3101 c15.6899,1.78,31.0699,9.6101,40.35,22.6301c5.58,7.49,8.6699,16.5598,10.25,25.7c1.98,11.47,1.2,23.1399,1.34,34.72 c0,39.01,0.02,78.02,0,117.03C987.3301,2455.02,493.66,2455.0901,0,2455v1h1518v-144.3301 C1516.3101,2302.9399,1514.37,2294.02,1509.6,2286.3899z" style="stroke: rgb(255, 255, 255);"/>
    <path stroke="#7B8F8E" stroke-width="0.0938" d="M171.97,2254.5601c8.3-1.0801,16.69-0.3601,25.04-0.54 c84.66-0.01,169.33,0,253.99-0.01c6.04,0.02,12.1-0.28,18.12,0.4399c-16.88,1.6401-33.8,6.8601-47.44,17.1899 c-8.6,6.1902-15.55,14.6602-19.89,24.3301c-89.26,0.04-178.52,0.0701-267.79-0.01c-11.35,0.23-23.81,0.6101-32.98,8.26 c3.23-12.5999,11.69-23.4299,21.72-31.46C136.75,2261.76,154.38,2256.1399,171.97,2254.5601z" style=""/>
    <path stroke="#7B8F8E" stroke-width="0.0938" d="M907.69,2255.47c5.72-0.96,11.54-0.3301,17.31-0.49 c135,0,270,0,405,0c12.37,0.1401,24.86-0.7,37.1,1.6699c23.22,3.74,46.53,15.9602,58.01,37.28c1.37,3.24,4.4,6.6001,3.12,10.3301 c-3.78-3.4199-8.4299-5.9199-13.47-6.76c-12.8-2.29-25.84-1.3201-38.76-1.5c-133.97-0.02-267.9301,0.04-401.9-0.03 c-6.93-14.1299-19.3-25.04-33.47-31.5801C930.29,2259.45,919.01,2256.8601,907.69,2255.47z" style=""/>
    <path stroke="#A9BDBC" stroke-width="0.0938" d="M396.65,2314.1399c0.89-6.3899,3.12-12.48,6.08-18.1699h-0.94 c-89.26,0.04-178.52,0.0701-267.79-0.01c-11.35,0.23-23.81,0.6101-32.98,8.26c-2.05,2.8601-2.21,6.46-2.34,9.8701l1.22,0.0698 c2.02,0.0801,4.05,0.1702,6.08,0.2102c91.01-0.03,182.01-0.01,273.02-0.01c5.9965,0.01,12.032-0.3206,18,0.54v-0.7529 C396.8834,2314.144,396.7667,2314.1431,396.65,2314.1399z" style=""/>
    <path stroke="#5C7071" stroke-width="0.0938" d="M973.21,2295.96C783.05,2296.01,592.89,2296,402.73,2295.97 c-2.96,5.6899-5.19,11.78-6.08,18.1699c0.1166,0.0032,0.2333,0.0044,0.35,0.0073v0.7529c0.0533,0.0076,0.1068,0.012,0.16,0.0198 c5.25,0.71,10.56,0.3901,15.84,0.4302c27.67,0,55.34,0,83,0c18.0901-0.2102,36.1899,0.4399,54.27-0.3501 c16.5601,0.7,33.1499,0.1399,49.73,0.3201c126.72-0.0701,253.45,0.1399,380.1699-0.1001 C978.88,2308.47,976.95,2301.79,973.21,2295.96z" style=""/>
    <path stroke-width="0.0938" d="M973.21,2295.96l0.89,0.01c133.97,0.0701,267.9301,0.01,401.9,0.03 c12.92,0.1799,25.96-0.79,38.76,1.5c5.04,0.8401,9.6899,3.3401,13.47,6.76c2.12,3.1199,3.38,6.8,3.79,10.5701 c-0.72,0.0999-2.17,0.2998-2.89,0.3899c-116.04,0.23-232.09,0.04-348.13,0.1001c-33.61-0.0701-67.22,0.1399-100.83-0.1001 C978.88,2308.47,976.95,2301.79,973.21,2295.96z" style="stroke: rgb(0, 0, 0);"/>
    <path stroke="#384B4D" stroke-width="0.0938" d="M99.9,2314.1599c2.02,0.0801,4.05,0.1702,6.08,0.2102 c91.01-0.03,182.01-0.01,273.02-0.01c6.05,0.01,12.14-0.3301,18.16,0.5598c-0.11,2.98-0.2,5.99-0.26,9.01 c-41.63,0.3801-83.27,0.05-124.91,0.1602c-50-0.01-100.01,0.03-150.01-0.02C113.64,2324.1499,105.14,2320.78,99.9,2314.1599z" style=""/>
    <path stroke="#253A3E" stroke-width="0.0938" d="M397.16,2314.9199c5.25,0.71,10.56,0.3901,15.84,0.4302 c27.67,0,55.34,0,83,0c18.09-0.2102,36.19,0.4399,54.27-0.3501c16.56,0.7,33.15,0.1399,49.73,0.3201 c126.72-0.0701,253.45,0.1399,380.17-0.1001c0.43,2.8901,0.8,5.8,1.13,8.74c-138.76,0.1401-277.53,0.01-416.3,0.0601 c-56.03-0.0701-112.07,0.1199-168.1-0.0901C396.96,2320.9099,397.05,2317.8999,397.16,2314.9199z" style=""/>
    <path stroke-width="0.0938" d="M980.17,2315.22c33.61,0.24,67.22,0.03,100.83,0.1001 c116.04-0.0601,232.09,0.1299,348.13-0.1001c-4.79,6.55-13.4,8.75-21.12,8.8901c-117-0.01-234.01,0-351.01,0 c-25.23-0.1101-50.47,0.2-75.7-0.1501C980.97,2321.02,980.6,2318.1101,980.17,2315.22z" style="stroke: rgb(0, 0, 0);"/>
  </g>
</svg>